# xmcd CD database file
#
# Track frame offsets:
#	150
#	18090
#	46847
#	73967
#	90040
#	113147
#	125727
#	145400
#	161017
#	183275
#	201465
#	218180
#	234265
#	254170
#	267805
#
# Disc length: 3872 seconds
#
# Revision: 0
# Processed by: cddbd v1.5.1PL0 Copyright (c) Steve Scherf et al.
# Submitted via: CDex 1.51
#
DISCID=d80f1e0f
DTITLE=Ruby Braff and Ellis Larkins - Calling Berlin, Vol. 1
DYEAR=1995
DGENRE=Jazz
TTITLE0=It's a Lovely Day Today
TTITLE1=Blue Skies
TTITLE2=Alexander's Ragtime Band
TTITLE3=I'm Putting All My Eggs in One Basket
TTITLE4=How Deep Is the Ocean?
TTITLE5=Soft Lights and Sweet Music
TTITLE6=Let's Face the Music and Dance
TTITLE7=My Walking Stick
TTITLE8=Russian Lullaby
TTITLE9=You're Laughing at Me
TTITLE10=This Year's Kisses
TTITLE11=Top Hat, White Tie and Tails
TTITLE12=They Say It's Wonderful
TTITLE13=Steppin' Out with My Baby
TTITLE14=Easter Parade
EXTD=YEAR: 1995
EXTT0=
EXTT1=
EXTT2=
EXTT3=
EXTT4=
EXTT5=
EXTT6=
EXTT7=
EXTT8=
EXTT9=
EXTT10=
EXTT11=
EXTT12=
EXTT13=
EXTT14=
PLAYORDER=
